<?xml version="1.0" encoding="UTF-8" standalone="no"?>
<svg
   xmlns:dc="http://purl.org/dc/elements/1.1/"
   xmlns:cc="http://creativecommons.org/ns#"
   xmlns:rdf="http://www.w3.org/1999/02/22-rdf-syntax-ns#"
   xmlns:svg="http://www.w3.org/2000/svg"
   xmlns="http://www.w3.org/2000/svg"
   xmlns:sodipodi="http://sodipodi.sourceforge.net/DTD/sodipodi-0.dtd"
   xmlns:inkscape="http://www.inkscape.org/namespaces/inkscape"
   version="1.1"
   x="0px"
   y="0px"
   viewBox="0 0 116.739 98.124001"
   enable-background="new 0 0 100 100"
   xml:space="preserve"
   id="svg32"
   sodipodi:docname="logo.svg"
   width="116.739"
   height="98.124001"
   inkscape:version="0.92.4 5da689c313, 2019-01-14"><metadata
     id="metadata38"><rdf:RDF><cc:Work
         rdf:about=""><dc:format>image/svg+xml</dc:format><dc:type
           rdf:resource="http://purl.org/dc/dcmitype/StillImage" /><dc:title></dc:title></cc:Work></rdf:RDF></metadata><defs
     id="defs36" /><sodipodi:namedview
     pagecolor="#ffffff"
     bordercolor="#666666"
     borderopacity="1"
     objecttolerance="10"
     gridtolerance="10"
     guidetolerance="10"
     inkscape:pageopacity="0"
     inkscape:pageshadow="2"
     inkscape:window-width="1920"
     inkscape:window-height="1044"
     id="namedview34"
     showgrid="false"
     fit-margin-top="10"
     fit-margin-left="10"
     fit-margin-right="10"
     fit-margin-bottom="10"
     inkscape:zoom="2.7381992"
     inkscape:cx="122.85755"
     inkscape:cy="96.574639"
     inkscape:window-x="0"
     inkscape:window-y="16"
     inkscape:window-maximized="0"
     inkscape:current-layer="svg32" /><g
     id="g837"><polygon
       transform="translate(8.37,-3.938)"
       id="polygon2"
       points="82.566,61.219 82.574,61.292 82.527,61.238 82.264,61.365 82.281,61.389 42.021,89.823 98.369,53.589 " /><polygon
       transform="translate(8.37,-3.938)"
       id="polygon4"
       points="36.811,91.25 79.395,61.174 38.895,57.391 " /><polygon
       transform="translate(8.37,-3.938)"
       id="polygon6"
       points="37.066,57.146 3.71,38.712 34.918,92.062 " /><polygon
       transform="translate(8.37,-3.938)"
       id="polygon8"
       points="79.232,32.516 95.928,46.175 95.209,45.172 80.775,27.29 " /><polygon
       transform="translate(8.37,-3.938)"
       id="polygon10"
       points="82.281,58.632 98.135,50.979 79.758,35.645 " /><polygon
       transform="translate(8.37,-3.938)"
       id="polygon12"
       points="77.424,33.356 61.512,33.498 79.758,54.504 " /><polygon
       transform="translate(8.37,-3.938)"
       id="polygon14"
       points="80.432,58.808 59.756,34.836 39.467,54.979 " /><polygon
       transform="translate(8.37,-3.938)"
       id="polygon16"
       points="38.974,52.971 58.445,33.191 36.674,27.365 " /><polygon
       transform="translate(8.37,-3.938)"
       id="polygon18"
       points="6.776,37.639 37.133,54.393 34.822,28.537 " /><polygon
       transform="translate(8.37,-3.938)"
       id="polygon20"
       points="25.659,19.867 8.923,35.031 34.527,26.292 " /><polygon
       transform="translate(8.37,-3.938)"
       id="polygon22"
       points="20.957,21.022 1.63,26.184 3.25,37.485 " /><polygon
       transform="translate(8.37,-3.938)"
       id="polygon24"
       points="26.101,17.109 28.355,14.604 7.837,21.987 " /><polygon
       transform="translate(8.37,-3.938)"
       id="polygon26"
       points="77.148,30.907 78.672,25.749 67.951,19.853 48.173,14.486 32.256,13.938 28.073,18.586 36.751,24.86 60.131,31.196 " /></g></svg>